<svg width="28" height="28" viewBox="0 0 28 28" fill="none" xmlns="http://www.w3.org/2000/svg">
<path d="M14 28.0002C10.2603 28.0002 6.74463 26.5441 4.10059 23.8998C1.45605 21.2557 0 17.74 0 14.0001C0 10.2603 1.45605 6.74451 4.10059 4.10046C6.74463 1.45618 10.2603 0 14 0C17.7397 0 21.2554 1.45618 23.8994 4.10046C26.5439 6.74451 28 10.2603 28 14.0001C28 17.74 26.5439 21.2557 23.8994 23.8998C21.2554 26.5441 17.7397 28.0002 14 28.0002ZM12.3433 8.45496C12.1772 8.45496 12.0215 8.51587 11.9043 8.62659L11.3174 9.18054C11.2007 9.29089 11.1362 9.43774 11.1357 9.59399C11.1357 9.75 11.2002 9.89697 11.3164 10.0078L15.3013 13.7877L11.3164 17.5676C11.2002 17.6782 11.1357 17.8257 11.1357 17.9827C11.1362 18.139 11.2007 18.2854 11.3174 18.395L11.9043 18.9489C12.0215 19.0596 12.1772 19.1205 12.3433 19.1205C12.5088 19.1205 12.6646 19.0596 12.7817 18.9489L17.8105 14.202C17.9272 14.0913 17.9917 13.9442 17.9917 13.7877C17.9917 13.6312 17.9272 13.4841 17.8105 13.3735L12.7817 8.62659C12.6646 8.51587 12.5088 8.45496 12.3433 8.45496Z" fill="white"/>
</svg>
